<mxfile host="app.diagrams.net" modified="2024-06-25T14:05:51.420Z" agent="Mozilla/5.0 (Macintosh; Intel Mac OS X 10_15_7) AppleWebKit/537.36 (KHTML, like Gecko) Chrome/125.0.0.0 Safari/537.36" version="23.1.6" etag="mWJB7czKPycxR-tCKa4Z" type="github">
  <diagram name="Page-1" id="eeyut3SxSusFgIO9hVx5">
    <mxGraphModel>
      <root>
        <mxCell id="0" />
        <mxCell id="1" parent="0" />
      </root>
    </mxGraphModel>
  </diagram>
</mxfile>
